<mxfile host="www.draw.io" modified="2019-12-01T11:10:48.463Z" agent="Mozilla/5.0 (Windows NT 10.0; Win64; x64) AppleWebKit/537.36 (KHTML, like Gecko) Chrome/77.0.3865.90 Safari/537.36" etag="P5iD4RY5KtGHl30zbuXP" version="12.3.3" type="github" pages="1">
  <diagram id="9DUGxnPBFYWtKnW7rblh" name="Page-1">
    <mxGraphModel dx="1408" dy="722" grid="1" gridSize="10" guides="1" tooltips="1" connect="1" arrows="1" fold="1" page="1" pageScale="1" pageWidth="850" pageHeight="1100" math="0" shadow="0">
      <root>
        <mxCell id="0"/>
        <mxCell id="1" parent="0"/>
        <mxCell id="I-3KL79WUWTxIudPwpj1-11" style="edgeStyle=orthogonalEdgeStyle;rounded=0;orthogonalLoop=1;jettySize=auto;html=1;dashed=1;endArrow=none;endFill=0;" parent="1" source="I-3KL79WUWTxIudPwpj1-1" edge="1">
          <mxGeometry relative="1" as="geometry">
            <mxPoint x="60" y="420" as="targetPoint"/>
            <Array as="points">
              <mxPoint x="55" y="420"/>
            </Array>
          </mxGeometry>
        </mxCell>
        <mxCell id="I-3KL79WUWTxIudPwpj1-1" value=":Nurse" style="shape=umlActor;verticalLabelPosition=bottom;labelBackgroundColor=#ffffff;verticalAlign=top;html=1;outlineConnect=0;" parent="1" vertex="1">
          <mxGeometry x="40" y="200" width="30" height="60" as="geometry"/>
        </mxCell>
        <mxCell id="I-3KL79WUWTxIudPwpj1-13" style="edgeStyle=orthogonalEdgeStyle;rounded=0;orthogonalLoop=1;jettySize=auto;html=1;dashed=1;endArrow=none;endFill=0;" parent="1" source="I-3KL79WUWTxIudPwpj1-2" edge="1">
          <mxGeometry relative="1" as="geometry">
            <mxPoint x="140" y="420" as="targetPoint"/>
          </mxGeometry>
        </mxCell>
        <mxCell id="I-3KL79WUWTxIudPwpj1-2" value="&lt;b&gt;:UI&lt;/b&gt;" style="rounded=0;whiteSpace=wrap;html=1;fillColor=#fff2cc;strokeColor=#d6b656;" parent="1" vertex="1">
          <mxGeometry x="120" y="190" width="40" height="40" as="geometry"/>
        </mxCell>
        <mxCell id="I-3KL79WUWTxIudPwpj1-14" style="edgeStyle=orthogonalEdgeStyle;rounded=0;orthogonalLoop=1;jettySize=auto;html=1;entryX=0.458;entryY=-0.067;entryDx=0;entryDy=0;entryPerimeter=0;dashed=1;endArrow=none;endFill=0;" parent="1" source="I-3KL79WUWTxIudPwpj1-3" target="I-3KL79WUWTxIudPwpj1-6" edge="1">
          <mxGeometry relative="1" as="geometry"/>
        </mxCell>
        <mxCell id="I-3KL79WUWTxIudPwpj1-3" value="&lt;b&gt;:Nurse&lt;/b&gt;" style="rounded=0;whiteSpace=wrap;html=1;fillColor=#fff2cc;strokeColor=#d6b656;" parent="1" vertex="1">
          <mxGeometry x="190" y="190" width="50" height="40" as="geometry"/>
        </mxCell>
        <mxCell id="I-3KL79WUWTxIudPwpj1-6" value="Nurse" style="swimlane;fontStyle=0;childLayout=stackLayout;horizontal=1;startSize=26;fillColor=none;horizontalStack=0;resizeParent=1;resizeParentMax=0;resizeLast=0;collapsible=1;marginBottom=0;" parent="1" vertex="1">
          <mxGeometry x="160" y="440" width="120" height="100" as="geometry"/>
        </mxCell>
        <mxCell id="I-3KL79WUWTxIudPwpj1-7" value="name" style="text;strokeColor=none;fillColor=none;align=left;verticalAlign=top;spacingLeft=4;spacingRight=4;overflow=hidden;rotatable=0;points=[[0,0.5],[1,0.5]];portConstraint=eastwest;" parent="I-3KL79WUWTxIudPwpj1-6" vertex="1">
          <mxGeometry y="26" width="120" height="26" as="geometry"/>
        </mxCell>
        <mxCell id="I-3KL79WUWTxIudPwpj1-8" value="mobile no" style="text;strokeColor=none;fillColor=none;align=left;verticalAlign=top;spacingLeft=4;spacingRight=4;overflow=hidden;rotatable=0;points=[[0,0.5],[1,0.5]];portConstraint=eastwest;" parent="I-3KL79WUWTxIudPwpj1-6" vertex="1">
          <mxGeometry y="52" width="120" height="26" as="geometry"/>
        </mxCell>
        <mxCell id="I-3KL79WUWTxIudPwpj1-9" value="employee no" style="text;strokeColor=none;fillColor=none;align=left;verticalAlign=top;spacingLeft=4;spacingRight=4;overflow=hidden;rotatable=0;points=[[0,0.5],[1,0.5]];portConstraint=eastwest;" parent="I-3KL79WUWTxIudPwpj1-6" vertex="1">
          <mxGeometry y="78" width="120" height="22" as="geometry"/>
        </mxCell>
        <mxCell id="I-3KL79WUWTxIudPwpj1-22" style="edgeStyle=orthogonalEdgeStyle;rounded=0;orthogonalLoop=1;jettySize=auto;html=1;entryX=0.1;entryY=-0.115;entryDx=0;entryDy=0;entryPerimeter=0;dashed=1;endArrow=none;endFill=0;" parent="1" source="I-3KL79WUWTxIudPwpj1-15" target="I-3KL79WUWTxIudPwpj1-18" edge="1">
          <mxGeometry relative="1" as="geometry"/>
        </mxCell>
        <mxCell id="I-3KL79WUWTxIudPwpj1-15" value="&lt;b&gt;:Patient&lt;/b&gt;" style="rounded=0;whiteSpace=wrap;html=1;fillColor=#fff2cc;strokeColor=#d6b656;" parent="1" vertex="1">
          <mxGeometry x="370" y="190" width="50" height="40" as="geometry"/>
        </mxCell>
        <mxCell id="I-3KL79WUWTxIudPwpj1-28" style="edgeStyle=orthogonalEdgeStyle;rounded=0;orthogonalLoop=1;jettySize=auto;html=1;endArrow=none;endFill=0;" parent="1" source="I-3KL79WUWTxIudPwpj1-18" target="I-3KL79WUWTxIudPwpj1-26" edge="1">
          <mxGeometry relative="1" as="geometry"/>
        </mxCell>
        <mxCell id="I-3KL79WUWTxIudPwpj1-18" value="Patient" style="swimlane;fontStyle=0;childLayout=stackLayout;horizontal=1;startSize=26;fillColor=none;horizontalStack=0;resizeParent=1;resizeParentMax=0;resizeLast=0;collapsible=1;marginBottom=0;" parent="1" vertex="1">
          <mxGeometry x="370" y="431" width="140" height="78" as="geometry"/>
        </mxCell>
        <mxCell id="I-3KL79WUWTxIudPwpj1-19" value="name" style="text;strokeColor=none;fillColor=none;align=left;verticalAlign=top;spacingLeft=4;spacingRight=4;overflow=hidden;rotatable=0;points=[[0,0.5],[1,0.5]];portConstraint=eastwest;" parent="I-3KL79WUWTxIudPwpj1-18" vertex="1">
          <mxGeometry y="26" width="140" height="26" as="geometry"/>
        </mxCell>
        <mxCell id="I-3KL79WUWTxIudPwpj1-21" value="nationalId" style="text;strokeColor=none;fillColor=none;align=left;verticalAlign=top;spacingLeft=4;spacingRight=4;overflow=hidden;rotatable=0;points=[[0,0.5],[1,0.5]];portConstraint=eastwest;" parent="I-3KL79WUWTxIudPwpj1-18" vertex="1">
          <mxGeometry y="52" width="140" height="26" as="geometry"/>
        </mxCell>
        <mxCell id="I-3KL79WUWTxIudPwpj1-33" style="edgeStyle=orthogonalEdgeStyle;rounded=0;orthogonalLoop=1;jettySize=auto;html=1;entryX=0.321;entryY=0.026;entryDx=0;entryDy=0;entryPerimeter=0;endArrow=none;endFill=0;dashed=1;" parent="1" source="I-3KL79WUWTxIudPwpj1-23" target="I-3KL79WUWTxIudPwpj1-24" edge="1">
          <mxGeometry relative="1" as="geometry"/>
        </mxCell>
        <mxCell id="I-3KL79WUWTxIudPwpj1-23" value="&lt;b&gt;:Register&lt;/b&gt;" style="rounded=0;whiteSpace=wrap;html=1;fillColor=#fff2cc;strokeColor=#d6b656;" parent="1" vertex="1">
          <mxGeometry x="610" y="180" width="50" height="40" as="geometry"/>
        </mxCell>
        <mxCell id="I-3KL79WUWTxIudPwpj1-24" value="register" style="swimlane;fontStyle=0;childLayout=stackLayout;horizontal=1;startSize=26;fillColor=none;horizontalStack=0;resizeParent=1;resizeParentMax=0;resizeLast=0;collapsible=1;marginBottom=0;" parent="1" vertex="1">
          <mxGeometry x="590" y="431" width="140" height="78" as="geometry"/>
        </mxCell>
        <mxCell id="I-3KL79WUWTxIudPwpj1-25" value="createdDate" style="text;strokeColor=none;fillColor=none;align=left;verticalAlign=top;spacingLeft=4;spacingRight=4;overflow=hidden;rotatable=0;points=[[0,0.5],[1,0.5]];portConstraint=eastwest;" parent="I-3KL79WUWTxIudPwpj1-24" vertex="1">
          <mxGeometry y="26" width="140" height="26" as="geometry"/>
        </mxCell>
        <mxCell id="I-3KL79WUWTxIudPwpj1-26" value="room" style="text;strokeColor=none;fillColor=none;align=left;verticalAlign=top;spacingLeft=4;spacingRight=4;overflow=hidden;rotatable=0;points=[[0,0.5],[1,0.5]];portConstraint=eastwest;" parent="I-3KL79WUWTxIudPwpj1-24" vertex="1">
          <mxGeometry y="52" width="140" height="26" as="geometry"/>
        </mxCell>
        <mxCell id="I-3KL79WUWTxIudPwpj1-29" value="1..1" style="text;html=1;align=center;verticalAlign=middle;resizable=0;points=[];;autosize=1;" parent="1" vertex="1">
          <mxGeometry x="510" y="440" width="40" height="20" as="geometry"/>
        </mxCell>
        <mxCell id="I-3KL79WUWTxIudPwpj1-30" value="0..*" style="text;html=1;align=center;verticalAlign=middle;resizable=0;points=[];;autosize=1;" parent="1" vertex="1">
          <mxGeometry x="550" y="470" width="30" height="20" as="geometry"/>
        </mxCell>
        <mxCell id="I-3KL79WUWTxIudPwpj1-36" style="edgeStyle=orthogonalEdgeStyle;rounded=0;orthogonalLoop=1;jettySize=auto;html=1;entryX=0.457;entryY=0.962;entryDx=0;entryDy=0;entryPerimeter=0;endArrow=none;endFill=0;" parent="1" source="I-3KL79WUWTxIudPwpj1-9" target="I-3KL79WUWTxIudPwpj1-26" edge="1">
          <mxGeometry relative="1" as="geometry"/>
        </mxCell>
        <mxCell id="I-3KL79WUWTxIudPwpj1-38" value="0.*" style="text;html=1;align=center;verticalAlign=middle;resizable=0;points=[];;labelBackgroundColor=#ffffff;" parent="I-3KL79WUWTxIudPwpj1-36" vertex="1" connectable="0">
          <mxGeometry x="0.6354" y="4" relative="1" as="geometry">
            <mxPoint x="13" y="-7" as="offset"/>
          </mxGeometry>
        </mxCell>
        <mxCell id="I-3KL79WUWTxIudPwpj1-37" value="1..1" style="text;html=1;align=center;verticalAlign=middle;resizable=0;points=[];;autosize=1;" parent="1" vertex="1">
          <mxGeometry x="280" y="510" width="40" height="20" as="geometry"/>
        </mxCell>
        <mxCell id="I-3KL79WUWTxIudPwpj1-39" value="" style="endArrow=none;html=1;" parent="1" edge="1">
          <mxGeometry width="50" height="50" relative="1" as="geometry">
            <mxPoint x="70" y="330" as="sourcePoint"/>
            <mxPoint x="635" y="330" as="targetPoint"/>
            <Array as="points">
              <mxPoint x="100" y="330"/>
            </Array>
          </mxGeometry>
        </mxCell>
        <mxCell id="I-3KL79WUWTxIudPwpj1-44" value="&lt;b&gt;Register Patient(nationalId,patientName,regNo,emergencyAssesmentResult,roomNumber)&lt;/b&gt;" style="text;html=1;" parent="1" vertex="1">
          <mxGeometry x="70" y="290" width="470" height="30" as="geometry"/>
        </mxCell>
        <mxCell id="QTamn775A07xFxRPqQr5-1" value="&lt;div&gt;Create a sequence diagrams based on the use case descriptions “Register patient” from task 4.&lt;/div&gt;&lt;div&gt;&lt;br&gt;&lt;/div&gt;" style="rounded=1;whiteSpace=wrap;html=1;fillColor=#dae8fc;strokeColor=#6c8ebf;align=left;" vertex="1" parent="1">
          <mxGeometry x="40" y="90" width="680" height="40" as="geometry"/>
        </mxCell>
        <mxCell id="QTamn775A07xFxRPqQr5-2" value="&lt;font style=&quot;font-size: 20px&quot;&gt;&lt;b&gt;Task 5 (3)&lt;/b&gt;&lt;/font&gt;" style="text;html=1;strokeColor=none;fillColor=none;align=center;verticalAlign=middle;whiteSpace=wrap;rounded=0;" vertex="1" parent="1">
          <mxGeometry x="324" y="31" width="110" height="30" as="geometry"/>
        </mxCell>
      </root>
    </mxGraphModel>
  </diagram>
</mxfile>
